<svg id="Layer_1" data-name="Layer 1" xmlns="http://www.w3.org/2000/svg" xmlns:xlink="http://www.w3.org/1999/xlink" viewBox="0 0 500 500"><defs><style>.cls-1{fill:#f4d9ce;}.cls-2{clip-path:url(#clip-path);}.cls-3{fill:#aacfcf;}.cls-4{fill:#688a75;}.cls-5{fill:#fff;}.cls-6{clip-path:url(#clip-path-2);}.cls-7{fill:#bab9b9;}.cls-8{fill:#ffbdab;}.cls-9{fill:#ddd;}</style><clipPath id="clip-path"><circle class="cls-1" cx="249.69" cy="-260" r="215.67"/></clipPath><clipPath id="clip-path-2"><circle class="cls-1" cx="250" cy="250" r="215.67"/></clipPath></defs><circle class="cls-1" cx="249.69" cy="-260" r="215.67"/><g class="cls-2"><path class="cls-3" d="M275.54-98c.82-.78,1.64-1.65,2.45-2.57l-12.33-11.6c-6.72,13.09-12.71,22.3-16,21.61-2.47-.52-6.42-6-11-14.19L227-93.57c1.73,2.84,3.38,5.35,4.92,7.41,11.61,15.54,12.5,63.9,11.62,96.88h17.08C259.46-26.3,260.27-83.54,275.54-98ZM252.11-15.5a4.49,4.49,0,0,1-4.5-4.5,4.5,4.5,0,0,1,4.5-4.51A4.51,4.51,0,0,1,256.62-20,4.5,4.5,0,0,1,252.11-15.5Zm0-38.85a4.5,4.5,0,0,1-4.5-4.51,4.5,4.5,0,0,1,4.5-4.5,4.51,4.51,0,0,1,4.51,4.5A4.51,4.51,0,0,1,252.11-54.35Z"/><path class="cls-4" d="M228-83.17c-16.14-21.6-42.93-87.14-47.89-99.43-20,3.72-47.23,11.7-54.32,37.13-1.94,7-4.12,17.34-6.39,29.66,4.42-.09,10.89.56,12.08,5,.75,2.83,2.76,10.34-4.14,12.72-3.17,1.1-8.37,1.39-11.31,1.48-6,35.76-12.13,79.81-15.81,107.31h40.29c7.18-51.06,4.81-131.57,4.78-132.58a2.5,2.5,0,0,1,2.42-2.58,2.47,2.47,0,0,1,2.57,2.42c.13,4.12,2.41,81.71-4.71,132.74h16.8V8.89A9.49,9.49,0,0,1,165.24,2a9.67,9.67,0,0,1,7-2.68l25.48.84a9.53,9.53,0,0,1,9.24,9.56v1h31.61C239.41-21.62,238.66-68.84,228-83.17Z"/><path class="cls-5" d="M197.52,5.17,172,4.33a4.57,4.57,0,0,0-3.32,1.28,4.51,4.51,0,0,0-1.39,3.28v1.83h34.6v-1A4.55,4.55,0,0,0,197.52,5.17Z"/><path class="cls-4" d="M368.83-82.92c-2.72-19.77,9.8-28.28,14.63-30.79-3.23-25.18-7-44.32-11.36-50.29-8.73-12-32.82-18.58-52.26-22-4.17,15.05-21.17,72.93-40.86,91.6C265.12-81.24,264.52-25.5,265.7,10.72h75.53c-3.27-53.12-1.54-121.54-1.44-125.58a2.5,2.5,0,0,1,2.5-2.43h.07a2.49,2.49,0,0,1,2.43,2.56c0,1-1.81,71.64,1.48,125.45h47.36C392.48-10.88,391-35,389.06-58.22,383.92-59.21,371.48-63.6,368.83-82.92Z"/><path d="M114-96.57h-.18l0-5H114c.68,0,1.67,0,2.81-.06q.81-4.7,1.6-9.14-.91,0-1.86.15l-.54-5c.76-.08,1.95-.18,3.32-.21,2.27-12.32,4.45-22.7,6.39-29.66,7.09-25.43,34.31-33.41,54.32-37.13-.41-1-.67-1.65-.76-1.89a2.5,2.5,0,0,1,1.39-3.25,2.18,2.18,0,0,1,.48-.14c-21.31,3.75-52.11,11.91-60.24,41.07s-20,114.27-25.82,157.53h5.06C103.86-16.78,110-60.83,116-96.59,115.08-96.57,114.38-96.57,114-96.57Z"/><path d="M387-109.85a17.68,17.68,0,0,0-2.87,1.46c1.67,13.79,3.17,29.14,4.51,45a13.33,13.33,0,0,0,2.76.46,2.49,2.49,0,0,1,2.43,2.56,2.49,2.49,0,0,1-2.49,2.44h0a15.08,15.08,0,0,1-2.23-.29C391-35,392.48-10.88,393.63,10.72h5c-1.78-33.41-5-83.89-10-122.9A2.47,2.47,0,0,1,387-109.85Z"/><path d="M232-86.16c-1.54-2.06-3.19-4.57-4.92-7.41l-1.43,1.38-3.47-3.59,2.3-2.22c-2.35-4.12-4.8-8.75-7.29-13.66l-1.36,1.28L212.35-114l2.46-2.33c-3.94-8-7.92-16.56-11.64-24.85l-1.23,1-3.08-3.94,2.21-1.72c-2.76-6.23-5.34-12.2-7.62-17.56l-2.76,1.63-2.55-4.3,3.34-2c-2.87-6.82-5.11-12.27-6.37-15.38-1.61.27-3.3.56-5,.88,5,12.29,31.75,77.83,47.89,99.43,10.7,14.33,11.45,61.55,10.58,93.89h5C244.46-22.26,243.57-70.62,232-86.16Z"/><path d="M279-94.4c19.69-18.67,36.69-76.55,40.86-91.6-1.7-.3-3.36-.57-5-.83-.87,3.07-2.22,7.75-4,13.42l2.43.81-1.58,4.74-2.35-.78c-1.75,5.47-3.81,11.59-6.11,17.92l2.66,1.84-2.84,4.11-1.61-1.11c-2.8,7.4-5.91,14.93-9.22,21.9l2.33,1.36-2.53,4.32-2-1.18a112.61,112.61,0,0,1-8.94,15l2,1.9L279.71-99,278-100.59c-.81.92-1.63,1.79-2.45,2.57C260.27-83.54,259.46-26.3,260.66,10.72h5C264.52-25.5,265.12-81.24,279-94.4Z"/><path d="M344.79-114.73a2.49,2.49,0,0,0-2.43-2.56h-.07a2.5,2.5,0,0,0-2.5,2.43c-.1,4-1.83,72.46,1.44,125.58h5C343-43.09,344.76-113.73,344.79-114.73Z"/><path d="M150.24-122a2.47,2.47,0,0,0-2.57-2.42,2.5,2.5,0,0,0-2.42,2.58c0,1,2.4,81.52-4.78,132.58h5.06C152.65-40.31,150.37-117.9,150.24-122Z"/><path d="M197.69.17,172.21-.67a9.67,9.67,0,0,0-7,2.68,9.49,9.49,0,0,0-2.91,6.88v1.83h5V8.89a4.51,4.51,0,0,1,1.39-3.28A4.57,4.57,0,0,1,172,4.33l25.48.84a4.55,4.55,0,0,1,4.41,4.56v1h5v-1A9.53,9.53,0,0,0,197.69.17Z"/></g><circle class="cls-1" cx="250" cy="250" r="215.67"/><g class="cls-6"><path class="cls-7" d="M215.27,376c-.28-.28-.52-.57-.79-.85l-9.34,8.18a46.9,46.9,0,0,0,4.18,5.69l8.15-11C216.72,377.36,216,376.68,215.27,376Z"/><path class="cls-7" d="M221.44,381.06l-8.6,11.56a41.94,41.94,0,0,0,10.23,6.91l5.9-14.45A42.32,42.32,0,0,1,221.44,381.06Z"/><path class="cls-7" d="M251.38,388.92c-2.06,0-4.07,0-6-.18l-3.14,15.67a80,80,0,0,0,10.42.09V388.88Z"/><path class="cls-7" d="M233.7,386.72l-6,14.73a53.05,53.05,0,0,0,9.56,2.39l3.13-15.65A55.18,55.18,0,0,1,233.7,386.72Z"/><path class="cls-7" d="M203.3,354l-7.11,2.33c.3,2.41.74,5.05,1.37,7.82l7.3-5.13C204.24,357.34,203.72,355.65,203.3,354Z"/><path class="cls-7" d="M206.83,363.79l-7.91,5.55a63.73,63.73,0,0,0,3.73,9.5l8.63-7.57A46.17,46.17,0,0,1,206.83,363.79Z"/><path class="cls-8" d="M166.9,197.86c0,.24-2.52,24.46,14.79,31.13,12.85,4.95,29.48-.17,38.25-3.67a7,7,0,0,0,4.44-6.56V200.33a2.31,2.31,0,0,1,2.26-2.32c2.91-.09,6.3,1.41,6.44,5.89,0,1.83.16,3.79.26,5.46,4-2.91,11.47-6.11,22.41-1.21l-.36-4.56a8.8,8.8,0,0,1,4.55-8.56,8.46,8.46,0,0,1,2.24-.8,2.88,2.88,0,0,1,2.49.71,2.91,2.91,0,0,1,.92,2.46c-.5,4.45-2.34,26.79,10.05,30,9.76,2.51,28,2.95,38.13-6.09,6.4-5.71,8.84-14.5,7.25-26.15l-.21-1.56,6.57-2.54a103.9,103.9,0,0,1-39.74-22.34,77.32,77.32,0,0,0-21.37,9.1.18.18,0,0,1-.28-.16v-7.17c3.46-3.32,11.49-6.43,15.49-7.84-14.92-16-20-31.58-20-31.58a121.72,121.72,0,0,1-39.27,39,20.68,20.68,0,0,1,4.16,2.91v7.17a.18.18,0,0,1-.27.16,74.64,74.64,0,0,0-11.54-5.85C185.37,189.83,158.25,190,158.25,190a41.93,41.93,0,0,1,0,4.33L167.1,196Zm104.36,1.81a28.35,28.35,0,0,1,10.18-7.09,25.76,25.76,0,0,1,2.92-1.11,28.75,28.75,0,0,1,3-.84c1-.2,2-.5,3.08-.6l3.12-.34c1,0,2.09,0,3.13,0,.52,0,1.05,0,1.57,0l1.55.16c1,.13,2.08.21,3.09.41s2,.45,3,.7c.5.14,1,.24,1.5.4l1.45.52,2.87,1.09a55.18,55.18,0,0,1,5.36,2.89l1.74,1-.65,1.35h0c-.57,1.26-1.17,2.39-1.81,3.55s-1.31,2.27-2,3.35a24.72,24.72,0,0,1-5.1,5.85,23.83,23.83,0,0,0,3.31-6.73c.4-1.18.74-2.38,1-3.59.13-.5.25-1,.36-1.52-1.34-.33-2.65-.72-4-1l-2.71-.57-1.33-.32c-.45-.09-.91-.13-1.36-.2-.9-.13-1.79-.28-2.68-.44s-1.8-.15-2.69-.26l-1.32-.13a19.83,19.83,0,0,1,2.32,9.44c0,9-5.7,16.36-12.7,16.36s-12.7-7.33-12.7-16.36a20.29,20.29,0,0,1,.67-5.19c-.83.39-1.63.81-2.38,1.23l-.16.09a1.37,1.37,0,0,1-1.7-2.11Zm-97.87-.86a55.18,55.18,0,0,1,5.36-2.89l2.87-1.09,1.46-.51c.48-.16,1-.27,1.49-.4,1-.25,2-.48,3-.71s2.06-.28,3.09-.4l1.55-.17c.52,0,1.05,0,1.57,0,1,0,2.09,0,3.13,0l3.12.33c1,.11,2.06.41,3.08.61a28.7,28.7,0,0,1,3,.83,30.23,30.23,0,0,1,2.92,1.11,28.28,28.28,0,0,1,10.19,7.1,1.38,1.38,0,0,1-.12,1.94,1.39,1.39,0,0,1-1.59.16l-.15-.09c-.75-.42-1.56-.84-2.38-1.23a20.82,20.82,0,0,1,.66,5.2c0,9-5.7,16.36-12.7,16.36s-12.7-7.34-12.7-16.36a19.81,19.81,0,0,1,2.32-9.44l-1.32.12c-.89.11-1.79.13-2.68.27s-1.79.3-2.69.43c-.45.07-.91.11-1.36.2l-1.33.32-2.71.57c-1.32.33-2.62.71-4,1,.12.51.23,1,.36,1.53.31,1.2.64,2.4,1,3.58a23.7,23.7,0,0,0,3.31,6.73,24.86,24.86,0,0,1-5.1-5.84c-.73-1.09-1.39-2.22-2-3.36s-1.23-2.28-1.81-3.54h0l-.65-1.35Z"/><path class="cls-5" d="M333.87,192.81l-8.69,3.36c1.35,12.28-1.59,21.72-8.75,28.09-12.21,10.88-32.67,9.32-41.79,7-14.07-3.61-13.93-23.86-13.2-32.45a4.93,4.93,0,0,0-2.06,4.48l.94,11.86-3.27-1.84c-15.87-8.94-23.47,1.13-23.79,1.56l-3.17,4.35-.44-5.36c0-.05-.43-5.31-.57-9.81a1.93,1.93,0,0,0-.7-1.65v16.38a11,11,0,0,1-7,10.28c-9.32,3.71-27,9.12-41.17,3.68-17.36-6.69-17.77-27.13-17.47-33.46l-4.87-.94c-.12,1.2-.27,2.42-.43,3.64l3.27,5.26,0,.63c-.05,1-1.07,25.43,24.23,29.5,26.3,4.25,43.26-7.7,44.47-10.06a22,22,0,0,0,.72-2.95c1-5,2.54-12.61,14.85-12,14.64.78,16.7,11.05,16.78,11.49.15.68,4.22,17.7,37.95,12.46,10.52-1.63,18.2-5.86,22.83-12.58,7.35-10.64,4.59-24.17,4.56-24.3l-.32-1.53,8.89-4.35c0-.11,0-.22,0-.34C335.06,193.11,334.47,193,333.87,192.81Z"/><path class="cls-8" d="M142.08,210.24H142c-2.21,0-4.22,1.36-6.14,4.09-4.14,5.86-.3,16.27,5.42,23.07,4.21,5,10.5,9.46,16.38,8.22a134.21,134.21,0,0,1-6.34-29.55C149.7,214,145.83,210.24,142.08,210.24Z"/><path class="cls-9" d="M374.2,573.58c1-18.73,2-37.47,3.09-56.19l1.63-28.1q.4-7,1.3-14a117.11,117.11,0,0,1,2.57-14A116.74,116.74,0,0,1,384,475.46q.21,7.05-.07,14.08l-1.11,28.12c-.1,2.41-.2,4.83-.29,7.24,51.07,6.54,71.49-13.24,75.47-17.81-4.28-12.69-38.74-114.3-50.42-130.44-1.72-2.37-5.29-4.74-10.12-7.06-.24,1.42-.5,2.84-.79,4.25-.62,3.15-1.37,6.27-2.17,9.38-.39,1.56-.86,3.11-1.28,4.66s-.93,3.09-1.44,4.62a85.25,85.25,0,0,1-3.5,9.13,85.71,85.71,0,0,1,.22-9.77c.1-1.62.27-3.22.42-4.83s.35-3.2.58-4.79c.44-3.18.93-6.36,1.55-9.51.35-1.82.73-3.63,1.17-5.44-22.41-9.07-61.92-17.07-81.62-21.06L309,345.9c.74,6.86,1.27,22.23-6.14,36.28l0,0-.18.22a47.94,47.94,0,0,1-4.29,6.67c-9.49,12.27-24.63,19.12-45,20.37-1.87.11-3.71.17-5.5.17-16.76,0-30.19-5-40-14.81A52.5,52.5,0,0,1,199,382.71l-.33-.38.1-.08c-7.22-13.68-8.22-28.6-8.26-35.26l-.87.25c-20.68,5.93-63,18.05-85.07,29.2.69,2.52,1.24,5.08,1.74,7.64.62,3.15,1.1,6.33,1.55,9.51.23,1.59.38,3.2.58,4.79s.31,3.21.42,4.83a85.71,85.71,0,0,1,.22,9.77,85.25,85.25,0,0,1-3.5-9.13c-.52-1.53-1-3.08-1.44-4.62s-.89-3.1-1.28-4.66c-.8-3.11-1.56-6.23-2.18-9.38-.4-2-.76-4-1.06-6.07-3.77,2.23-6.57,4.38-8,6.42C79.92,401.65,45.78,494.88,41.32,507.12c4,4.61,24.45,24.31,75.44,17.78-.09-2.41-.19-4.83-.28-7.24l-1.12-28.12q-.28-7-.07-14.08a118.79,118.79,0,0,1,1.19-14.15,117.11,117.11,0,0,1,2.57,14q.9,7,1.3,14l1.63,28.1c1.12,18.72,2.07,37.46,3.09,56.19s1.87,37.47,2.7,56.21c.33,7.13.6,14.26.89,21.39h242c.29-7.13.56-14.26.89-21.39C372.33,611.05,373.27,592.31,374.2,573.58Z"/><path class="cls-5" d="M181.17,213.91s10.27,12.88,20.85,13.27c1.85.07,3.58,0,5.2-.06,13.9-.88,19.4-19.35,7.1-25.89l-.28-.15c-9.37-4.81-40-.36-40-.36S175.36,208.81,181.17,213.91Z"/><path class="cls-5" d="M309.25,211S299,223.88,288.4,224.27c-1.84.07-3.57,0-5.19-.06-13.91-.88-19.41-19.35-7.1-25.89l.28-.15c9.36-4.81,40-.36,40-.36S315.06,205.9,309.25,211Z"/><path class="cls-8" d="M353.86,220.58c4.6-7.6,6.8-18.47,1.81-23.63-2.32-2.4-4.51-3.41-6.7-3.1-3.54.52-6.67,4.5-8.11,6.84a160.92,160.92,0,0,1-2.59,30.47C344.52,231.94,350.34,226.39,353.86,220.58Z"/><path class="cls-8" d="M325.86,226c-5.28,7.67-13.87,12.48-25.54,14.29a81.7,81.7,0,0,1-12.56,1.05c-26.24,0-29.77-15.94-29.92-16.71-.07-.32-1.69-7.64-13.07-8.25-8.89-.47-9.73,3.8-10.72,8.74a24.09,24.09,0,0,1-.91,3.61c-1.26,3.38-15,13.54-36.95,13.54a74.12,74.12,0,0,1-11.89-1c-26.41-4.26-27.6-28.63-27.59-33l-.18-.29c-.17,1-.35,2-.53,2.92a128.7,128.7,0,0,0,9,40c13.34,33,38.66,55.63,75.26,67.21a36.1,36.1,0,0,0,26-1.61c27-12.43,71.2-44.21,69.56-118.58l-4.55,2.22C331.86,204.36,332.7,216.06,325.86,226Zm-88.77,14.23a1.52,1.52,0,0,1,1.46.65l.19.29a14.39,14.39,0,0,0,1.61,2.09,6.64,6.64,0,0,0,1.9,1.44,6.5,6.5,0,0,0,2.11.62,8.85,8.85,0,0,0,2.39-.14,8.19,8.19,0,0,0,2.27-.75,10.35,10.35,0,0,0,2-1.45,14.26,14.26,0,0,0,1.71-2.08,20,20,0,0,0,1.39-2.44l.1-.2a1.48,1.48,0,0,1,2-.65A1.46,1.46,0,0,1,257,239a12.49,12.49,0,0,1-.79,3.61,13.24,13.24,0,0,1-1.83,3.3,11.94,11.94,0,0,1-2.94,2.67,11.2,11.2,0,0,1-3.75,1.47,11.81,11.81,0,0,1-4,.13,9.84,9.84,0,0,1-3.91-1.59,9.44,9.44,0,0,1-2.72-3,11,11,0,0,1-.8-1.75,10.29,10.29,0,0,1-.45-1.91A1.52,1.52,0,0,1,237.09,240.23Zm22.59,50.13-1.43.05c-.48,0-.95,0-1.43,0-1.89.07-3.76.21-5.62.37s-3.7.46-5.55.81a51.33,51.33,0,0,0-5.56,1.39,14.49,14.49,0,0,1,5.07-3.08,23.21,23.21,0,0,1,5.81-1.38,24.59,24.59,0,0,1,5.94.1,26.2,26.2,0,0,1,2.91.56,23.12,23.12,0,0,1,2.79,1C261.61,290.33,260.65,290.32,259.68,290.36Zm8.81-20.42a57.45,57.45,0,0,1-13.56,5,56.57,56.57,0,0,1-14.37,1.54,49.24,49.24,0,0,1-7.18-.63,26.71,26.71,0,0,1-3.53-.75c-1.17-.3-2.33-.61-3.47-1,2.4-.5,4.73-.65,7-1s4.59-.58,6.85-1c4.52-.66,9-1.6,13.38-2.59s8.79-2.22,13.17-3.57,8.74-2.83,13.25-4.48A41,41,0,0,1,268.49,269.94Z"/><path class="cls-8" d="M251.32,383.92c14-.16,24.69-4.25,31.78-12.13,10.35-11.52,9.94-27.87,9.77-30.83-1-2.36-1.89-9.53-.25-34.49a129.73,129.73,0,0,1-24.26,14.62,41.1,41.1,0,0,1-29.62,1.83,138.13,138.13,0,0,1-32-14.63c1.45,23.09.61,30.14-.32,32.55.07,3.24,1,20.11,12.4,31.64C226.54,380.23,237.42,384.09,251.32,383.92Z"/><path class="cls-7" d="M269.72,386.09l3,14.78a50.19,50.19,0,0,0,11.51-5.49L276.83,383A43,43,0,0,1,269.72,386.09Z"/><path class="cls-7" d="M281.06,380.31l7.2,12.09a40.83,40.83,0,0,0,6.14-6.33c.67-.87,1.29-1.76,1.88-2.65l-9.94-7.79A37.78,37.78,0,0,1,281.06,380.31Z"/><path class="cls-7" d="M304.06,359.28a68.88,68.88,0,0,0-.29-14.43c-2.58-.54-4.45-.94-5.83-1.25a56.48,56.48,0,0,1-1.39,12Z"/><path class="cls-7" d="M289.49,371.75l9.3,7.28a51.78,51.78,0,0,0,4.6-14.51l-8.22-4A42.89,42.89,0,0,1,289.49,371.75Z"/><path class="cls-7" d="M257.65,388.57v15.5a75.94,75.94,0,0,0,10.24-1.8l-3-14.84A59.54,59.54,0,0,1,257.65,388.57Z"/><path class="cls-7" d="M195.7,351.27l6.56-2.14c-.36-2.09-.57-3.93-.68-5.38-1.4.44-3.34,1-6.06,1.8C195.51,346.85,195.54,348.83,195.7,351.27Z"/><path d="M226.38,180.11v-7.17a20.68,20.68,0,0,0-4.16-2.91c-2.55,1.58-5.11,3-7.65,4.39a74.64,74.64,0,0,1,11.54,5.85A.18.18,0,0,0,226.38,180.11Z"/><path d="M335.67,193.58l.48-.23-.49-.11C335.66,193.36,335.67,193.47,335.67,193.58Z"/><path d="M206.44,303.35c.12,1.73.23,3.36.33,4.94a138.13,138.13,0,0,0,32,14.63,41.1,41.1,0,0,0,29.62-1.83,129.73,129.73,0,0,0,24.26-14.62q.09-1.52.21-3.12l3.42.24A120.05,120.05,0,0,0,316,283a121.64,121.64,0,0,0,21.3-46.93,13.8,13.8,0,0,1-2-.44l1.42-4.79a10.63,10.63,0,0,0,1.55.31,160.92,160.92,0,0,0,2.59-30.47c-.22.36-.4.69-.54.95l-1.57-.81a16.33,16.33,0,0,0-.42,2.41V206a13.7,13.7,0,0,1,0-2.71v-2.62l-2.46-1.27a20.41,20.41,0,0,1,1.2-2l-1.25.62c1.64,74.37-42.54,106.15-69.56,118.58a36.1,36.1,0,0,1-26,1.61C203.65,306.57,178.33,284,165,250.94a128.7,128.7,0,0,1-9-40c-.16.84-.31,1.63-.46,2.37a4.3,4.3,0,0,1,.27.36l-.4.3c-.66,3.2-1.16,5.34-1.16,5.34a18.23,18.23,0,0,0-1.08-3.72l-1.39,1c-.12-.16-.27-.35-.43-.54a134.21,134.21,0,0,0,6.34,29.55,10.06,10.06,0,0,0,2.13-.71l2.13,4.53a14.17,14.17,0,0,1-2.56.9c.28.76.58,1.52.88,2.28a116.23,116.23,0,0,0,41.26,52.2c0-.37-.05-.75-.08-1.12Z"/><path d="M141.31,237.4c-5.72-6.8-9.56-17.21-5.42-23.07,1.92-2.73,3.93-4.07,6.14-4.09h.05c3.75,0,7.62,3.8,9.27,5.83-.14-1.43-.24-2.75-.31-4-4.91-5.52-13.06-3.23-13.06-3.23-.28-.81-.53-1.61-.79-2.41a15.64,15.64,0,0,0-5.39,5c-5.91,8.37-1.2,21,5.68,29.18,5.57,6.63,12.12,10.21,18.21,10.21a14.4,14.4,0,0,0,3.7-.49c-.61-1.59-1.17-3.17-1.7-4.72C151.81,246.86,145.52,242.42,141.31,237.4Z"/><path d="M151.77,216.6l1.4-1a12.32,12.32,0,0,0-2.13-3.47c.07,1.21.17,2.53.31,4,.16.19.31.38.43.54l1.39-1h0Z"/><path d="M159.82,244.91a10.06,10.06,0,0,1-2.13.71c.53,1.55,1.09,3.13,1.7,4.72a14.17,14.17,0,0,0,2.56-.9Z"/><path d="M155.81,213.66a4.3,4.3,0,0,0-.27-.36c0,.22-.09.44-.13.66Z"/><path d="M343.73,193.68v.41l-1.42.7a10.85,10.85,0,0,0-1.52,1.69c0,1.41.07,2.82.07,4.21,1.44-2.34,4.57-6.32,8.11-6.84,2.19-.31,4.38.7,6.7,3.1,5,5.16,2.79,16-1.81,23.63-3.52,5.81-9.34,11.36-15.59,10.58-.31,1.65-.64,3.29-1,4.92a15.53,15.53,0,0,0,2.14.16c6.78,0,13.68-4.71,18.73-13.07,5.54-9.14,8.26-22.33,1.13-29.7-2.76-2.86-5.68-4.39-8.69-4.62-.28,1.59-.47,2.46-.47,2.46A15.84,15.84,0,0,0,343.73,193.68Z"/><path d="M338.75,200.83l1.57.81c.14-.26.32-.59.54-.95,0-1.39,0-2.8-.07-4.21A12.76,12.76,0,0,0,338.75,200.83Z"/><path d="M337.08,197.34a20.41,20.41,0,0,0-1.2,2l2.46,1.27,0-3.9Z"/><path d="M336.72,230.85l-1.42,4.79a13.8,13.8,0,0,0,2,.44c.37-1.63.7-3.27,1-4.92A10.63,10.63,0,0,1,336.72,230.85Z"/><path d="M156.69,198.08h-1.62l2.41,3.88c.16-1.22.31-2.44.43-3.64Z"/><polygon points="339.73 190.55 337.75 191.31 339.73 191.2 339.73 190.55"/><path d="M142.08,205.24a14.75,14.75,0,0,1,8.79,3.45c-.08-2.7,0-4.32,0-4.56l3.34.16-6.34-10.21,9.4,0,1,.19a41.93,41.93,0,0,0,0-4.33s27.12-.15,56.32-15.56a65,65,0,0,0-22.21-5l16.19-5.07A85.48,85.48,0,0,1,222.22,170a121.72,121.72,0,0,0,39.27-39s5.07,15.6,20,31.58c1.43-.5,2.34-.79,2.34-.79L300,166.9a58.09,58.09,0,0,0-12.37,1.79A103.9,103.9,0,0,0,327.38,191l16.35-6.31v5.9a12,12,0,0,1,4.5-1.71,10.2,10.2,0,0,1,2.34-.06C352.36,178.46,357.65,137,336,99,311,55,269.37,62.72,261.49,68.73c0,0-14.65-16.15-54.06,0-39,16-92.21,69.56-70.24,137.74a10.42,10.42,0,0,1,4.81-1.23Zm171-61.92a2,2,0,0,1-1.5.68,2,2,0,0,1-1.32-.51c-.2-.17-4.72-4.2-6.48-7.31a2,2,0,1,1,3.47-2c1.2,2.1,4.49,5.25,5.66,6.29A2,2,0,0,1,313.05,143.32Zm3.77-3.4a2,2,0,0,1-2.82.17c-.19-.17-4.71-4.2-6.48-7.31a2,2,0,1,1,3.48-2c1.19,2.11,4.48,5.26,5.65,6.3A2,2,0,0,1,316.82,139.92Zm3.72-3.4a2,2,0,0,1-1.49.67,2,2,0,0,1-1.33-.5c-.3-.27-7.38-6.57-10.1-11.37a2,2,0,1,1,3.48-2c2.4,4.23,9.21,10.3,9.27,10.36A2,2,0,0,1,320.54,136.52Zm-.91-29.29a2,2,0,0,1,2.83-.17c.3.27,7.37,6.57,10.1,11.37a2,2,0,0,1-.75,2.73,2.06,2.06,0,0,1-1,.26,2,2,0,0,1-1.74-1c-2.4-4.23-9.21-10.3-9.28-10.36A2,2,0,0,1,319.63,107.23Zm-6.17,2.48a2.5,2.5,0,0,1,3.52-.21c.38.34,9.29,8.27,12.72,14.32a2.5,2.5,0,0,1-4.35,2.47c-3-5.32-11.6-13-11.68-13.05A2.49,2.49,0,0,1,313.46,109.71Zm-9.36.83a2.51,2.51,0,0,1,3.53-.21c.52.47,12.84,11.44,17.55,19.74a2.49,2.49,0,0,1-.94,3.4,2.39,2.39,0,0,1-1.23.33,2.51,2.51,0,0,1-2.18-1.27c-4.3-7.57-16.39-18.35-16.52-18.46A2.51,2.51,0,0,1,304.1,110.54Zm-5.86,24.78a2,2,0,0,1,2.69.87c0,.07,3.72,7.2,8.48,9.55a2,2,0,0,1-.89,3.8,2,2,0,0,1-.89-.21c-5.94-3-10.09-11-10.27-11.32A2,2,0,0,1,298.24,135.32Zm-9.55-4.12a2,2,0,0,1,2.63,1c.06.15,6.65,15,20.26,23.3A2,2,0,0,1,309.5,159c-14.72-9-21.57-24.47-21.85-25.13A2,2,0,0,1,288.69,131.2ZM202.82,147a2,2,0,0,1,1,2.63c-.28.65-7.13,16.17-21.85,25.12a2,2,0,0,1-1,.3,2,2,0,0,1-1-3.71c13.61-8.28,20.2-23.16,20.26-23.31A2,2,0,0,1,202.82,147Zm-9.55,4.11a2,2,0,0,1,.88,2.69c-.18.34-4.33,8.38-10.27,11.32a2,2,0,0,1-.89.21,2,2,0,0,1-.89-3.79c4.75-2.36,8.45-9.48,8.48-9.56A2,2,0,0,1,193.27,151.09ZM187,149.23a2,2,0,0,1,.76,2.72c-1.77,3.12-6.29,7.15-6.49,7.32a2,2,0,0,1-2.65-3c1.17-1,4.46-4.19,5.66-6.29A2,2,0,0,1,187,149.23Zm-2.28-2.17c-1.77,3.11-6.29,7.14-6.48,7.31a2,2,0,1,1-2.65-3c1.16-1,4.46-4.19,5.65-6.3a2,2,0,1,1,3.48,2ZM182,136.21a2,2,0,0,1,.75,2.73c-2.73,4.8-9.8,11.1-10.1,11.37a2,2,0,0,1-1.33.5,2,2,0,0,1-1.5-.67,2,2,0,0,1,.17-2.82c.07-.07,6.88-6.14,9.28-10.36A2,2,0,0,1,182,136.21Zm-4.34-4.27a2,2,0,0,1-.17,2.82c-.07.06-6.88,6.13-9.28,10.36a2,2,0,0,1-1.74,1,2.05,2.05,0,0,1-1-.26,2,2,0,0,1-.75-2.73c2.72-4.8,9.8-11.1,10.1-11.37A2,2,0,0,1,177.68,131.94ZM175,124.77a2.51,2.51,0,0,1-.21,3.53c-.09.07-8.67,7.72-11.69,13a2.5,2.5,0,0,1-4.35-2.47c3.43-6,12.34-14,12.72-14.31A2.5,2.5,0,0,1,175,124.77Zm-25.65,9.39c4.7-8.29,17-19.27,17.54-19.73a2.5,2.5,0,0,1,3.32,3.74c-.12.11-12.22,10.89-16.52,18.46a2.49,2.49,0,0,1-2.17,1.26,2.52,2.52,0,0,1-1.24-.32A2.49,2.49,0,0,1,149.3,134.16Z"/><path d="M155.85,206.92c0,1.05.06,2.4.15,4,.18-.93.36-1.9.53-2.92Z"/><path d="M335.61,192.14l-1.74.67c.6.15,1.19.3,1.79.43C335.64,192.88,335.63,192.51,335.61,192.14Z"/><path d="M208.55,164.31l-16.19,5.07a65,65,0,0,1,22.21,5c2.54-1.35,5.1-2.81,7.65-4.39A85.48,85.48,0,0,0,208.55,164.31Z"/><path d="M154.21,204.29l-3.34-.16c0,.24-.08,1.86,0,4.56a27.19,27.19,0,0,1,4.67,4.61c.15-.74.3-1.53.46-2.37-.09-1.61-.13-3-.15-4Z"/><path d="M338.32,206v-2.71A13.7,13.7,0,0,0,338.32,206Z"/><path d="M339.73,191.2l-2,.12-2.14.82c0,.37,0,.74.05,1.1l.49.11,3.58-1.75Z"/><path d="M153.17,215.58a18.23,18.23,0,0,1,1.08,3.72s.5-2.14,1.16-5.34l-1.62,1.17Z"/><path d="M338.33,203.24a16.33,16.33,0,0,1,.42-2.41l-.41-.21Z"/><path d="M151,212.11c-.08-1.28-.14-2.43-.17-3.42a14.75,14.75,0,0,0-8.79-3.45H142a10.42,10.42,0,0,0-4.81,1.23c.26.8.51,1.6.79,2.41C138,208.88,146.13,206.59,151,212.11Z"/><polygon points="153.17 215.58 153.17 215.59 153.79 215.13 153.17 215.58"/><path d="M150.87,208.69c0,1,.09,2.14.17,3.42a12.32,12.32,0,0,1,2.13,3.47l.62-.45,1.62-1.17c0-.22.08-.44.13-.66A27.19,27.19,0,0,0,150.87,208.69Z"/><path d="M340.79,196.48a10.85,10.85,0,0,1,1.52-1.69l-1.55.76Z"/><path d="M348.23,188.91a12,12,0,0,0-4.5,1.71v3.06a15.84,15.84,0,0,1,6.37-2.37s.19-.87.47-2.46A10.2,10.2,0,0,0,348.23,188.91Z"/><path d="M340.76,195.55l-2.4,1.17,0,3.9.41.21a12.76,12.76,0,0,1,2-4.35Z"/><path class="cls-5" d="M320.83,132.53A2.51,2.51,0,0,0,323,133.8a2.39,2.39,0,0,0,1.23-.33,2.49,2.49,0,0,0,.94-3.4c-4.71-8.3-17-19.27-17.55-19.74a2.5,2.5,0,1,0-3.32,3.74C304.44,114.18,316.53,125,320.83,132.53Z"/><path class="cls-5" d="M325.35,126.29a2.5,2.5,0,1,0,4.35-2.47c-3.43-6-12.34-14-12.72-14.32a2.5,2.5,0,0,0-3.31,3.74C313.75,113.32,322.33,121,325.35,126.29Z"/><path class="cls-5" d="M329.08,120.41a2,2,0,0,0,1.74,1,2.06,2.06,0,0,0,1-.26,2,2,0,0,0,.75-2.73c-2.73-4.8-9.8-11.1-10.1-11.37a2,2,0,1,0-2.66,3C319.87,110.11,326.68,116.18,329.08,120.41Z"/><path class="cls-5" d="M311.1,123.34a2,2,0,1,0-3.48,2c2.72,4.8,9.8,11.1,10.1,11.37a2,2,0,0,0,1.33.5,2,2,0,0,0,1.32-3.49C320.31,133.64,313.5,127.57,311.1,123.34Z"/><path class="cls-5" d="M311,130.8a2,2,0,1,0-3.48,2c1.77,3.11,6.29,7.14,6.48,7.31a2,2,0,0,0,2.82-.17,2,2,0,0,0-.17-2.82C315.48,136.06,312.19,132.91,311,130.8Z"/><path class="cls-5" d="M307.22,134.21a2,2,0,1,0-3.47,2c1.76,3.11,6.28,7.14,6.48,7.31a2,2,0,0,0,1.32.51,2,2,0,0,0,1.33-3.5C311.71,139.46,308.42,136.31,307.22,134.21Z"/><path class="cls-5" d="M309.5,159a2,2,0,1,0,2.08-3.42c-13.61-8.28-20.2-23.15-20.26-23.3a2,2,0,0,0-3.67,1.59C287.93,134.49,294.78,150,309.5,159Z"/><path class="cls-5" d="M307.63,149.33a2,2,0,0,0,.89.21,2,2,0,0,0,.89-3.8c-4.76-2.35-8.45-9.48-8.48-9.55a2,2,0,0,0-3.57,1.82C297.54,138.35,301.69,146.38,307.63,149.33Z"/><path class="cls-5" d="M150.23,137.57a2.52,2.52,0,0,0,1.24.32,2.49,2.49,0,0,0,2.17-1.26c4.3-7.57,16.4-18.35,16.52-18.46a2.5,2.5,0,0,0-3.32-3.74c-.52.46-12.84,11.44-17.54,19.73A2.49,2.49,0,0,0,150.23,137.57Z"/><path class="cls-5" d="M158.7,138.87a2.5,2.5,0,0,0,4.35,2.47c3-5.32,11.6-13,11.69-13a2.5,2.5,0,1,0-3.32-3.74C171,124.89,162.13,132.83,158.7,138.87Z"/><path class="cls-5" d="M164.76,143.14a2,2,0,0,0,.75,2.73,2.05,2.05,0,0,0,1,.26,2,2,0,0,0,1.74-1c2.4-4.23,9.21-10.3,9.28-10.36a2,2,0,0,0-2.65-3C174.56,132,167.48,138.34,164.76,143.14Z"/><path class="cls-5" d="M170,147.32a2,2,0,0,0-.17,2.82,2,2,0,0,0,1.5.67,2,2,0,0,0,1.33-.5c.3-.27,7.37-6.57,10.1-11.37a2,2,0,1,0-3.48-2C176.89,141.18,170.08,147.25,170,147.32Z"/><path class="cls-5" d="M181.25,145.08c-1.19,2.11-4.49,5.26-5.65,6.3a2,2,0,0,0-.17,2.82,2,2,0,0,0,2.82.17c.19-.17,4.71-4.2,6.48-7.31a2,2,0,1,0-3.48-2Z"/><path class="cls-5" d="M184.29,150c-1.2,2.1-4.49,5.26-5.66,6.29a2,2,0,0,0-.17,2.83,2,2,0,0,0,2.82.17c.2-.17,4.72-4.2,6.49-7.32a2,2,0,0,0-3.48-2Z"/><path class="cls-5" d="M179.93,171.32a2,2,0,1,0,2.08,3.41c14.72-8.95,21.57-24.47,21.85-25.12a2,2,0,0,0-3.67-1.6C200.13,148.16,193.54,163,179.93,171.32Z"/><path class="cls-5" d="M182.1,161.52a2,2,0,0,0,.89,3.79,2,2,0,0,0,.89-.21c5.94-2.94,10.09-11,10.27-11.32a2,2,0,0,0-3.57-1.82C190.55,152,186.85,159.16,182.1,161.52Z"/><path d="M266,177.63a.18.18,0,0,0,.28.16,77.32,77.32,0,0,1,21.37-9.1q-3.33-3-6.16-6.07c-4,1.41-12,4.52-15.49,7.84Z"/><path d="M287.64,168.69A58.09,58.09,0,0,1,300,166.9l-16.19-5.07s-.91.29-2.34.79Q284.32,165.67,287.64,168.69Z"/><path d="M162.78,199.26c-.3,6.33.11,26.77,17.47,33.46,14.12,5.44,31.85,0,41.17-3.68a11,11,0,0,0,7-10.28V202.38a1.93,1.93,0,0,1,.7,1.65c.14,4.5.56,9.76.57,9.81l.44,5.36,3.17-4.35c.32-.43,7.92-10.5,23.79-1.56l3.27,1.84-.94-11.86a4.93,4.93,0,0,1,2.06-4.48c-.73,8.59-.87,28.84,13.2,32.45,9.12,2.34,29.58,3.9,41.79-7,7.16-6.37,10.1-15.81,8.75-28.09l8.69-3.36c-2.22-.54-4.39-1.13-6.49-1.78l-6.57,2.54.21,1.56c1.59,11.65-.85,20.44-7.25,26.15-10.16,9-28.37,8.6-38.13,6.09-12.39-3.18-10.55-25.52-10.05-30a2.91,2.91,0,0,0-.92-2.46,2.88,2.88,0,0,0-2.49-.71,8.46,8.46,0,0,0-2.24.8,8.8,8.8,0,0,0-4.55,8.56l.36,4.56c-10.94-4.9-18.44-1.7-22.41,1.21-.1-1.67-.21-3.63-.26-5.46-.14-4.48-3.53-6-6.44-5.89a2.31,2.31,0,0,0-2.26,2.32v18.43a7,7,0,0,1-4.44,6.56c-8.77,3.5-25.4,8.62-38.25,3.67-17.31-6.67-14.82-30.89-14.79-31.13l.2-1.84-8.87-1.71c-.07,1.28-.18,2.63-.32,4Z"/><path d="M326.78,197.93l.32,1.53c0,.13,2.79,13.66-4.56,24.3-4.63,6.72-12.31,11-22.83,12.58-33.73,5.24-37.8-11.78-37.95-12.46-.08-.44-2.14-10.71-16.78-11.49-12.31-.66-13.85,6.93-14.85,12a22,22,0,0,1-.72,2.95c-1.21,2.36-18.17,14.31-44.47,10.06-25.3-4.07-24.28-28.46-24.23-29.5l0-.63L157.48,202c-.28,2.06-.61,4.12-.95,6l.18.29c0,4.37,1.18,28.74,27.59,33a74.12,74.12,0,0,0,11.89,1c21.91,0,35.69-10.16,36.95-13.54a24.09,24.09,0,0,0,.91-3.61c1-4.94,1.83-9.21,10.72-8.74,11.38.61,13,7.93,13.07,8.25.15.77,3.68,16.71,29.92,16.71a81.7,81.7,0,0,0,12.56-1.05c11.67-1.81,20.26-6.62,25.54-14.29,6.84-9.94,6-21.64,5.42-25.82l4.55-2.22c0-1.44-.09-2.9-.16-4.38Z"/><path d="M338.37,193.83c-.75-.15-1.49-.32-2.22-.48l-.48.23c.07,1.48.12,2.94.16,4.38l1.25-.62c.36-.53.78-1.13,1.28-1.77Z"/><path d="M343.73,194.09v-.41a12.47,12.47,0,0,0-1.42,1.11Z"/><path d="M338.36,195.57c-.5.64-.92,1.24-1.28,1.77l1.28-.62Z"/><path d="M155.85,206.92l.68,1.09c.34-1.93.67-4,.95-6l-2.41-3.88h1.62l1.22.24c.14-1.38.25-2.73.32-4l-1-.19-9.4,0,6.34,10.21,1.65.07S155.83,205.32,155.85,206.92Z"/><path d="M335.61,192.14c0-.23,0-.46,0-.7l2.18-.12,2-.77v.65l.84,0c0,.62.06,1.24.08,1.86a17.88,17.88,0,0,1,3.08-2.4v-5.9L327.38,191c2.1.65,4.27,1.24,6.49,1.78Z"/><path d="M155.86,204.36l-1.65-.07,1.64,2.63C155.83,205.32,155.86,204.41,155.86,204.36Z"/><path d="M335.57,191.44c0,.24,0,.47,0,.7l2.14-.82Z"/><path d="M340.65,193c0-.62,0-1.24-.08-1.86l-.84,0v.4l-3.58,1.75c.73.16,1.47.33,2.22.48v1.74A24.94,24.94,0,0,1,340.65,193Z"/><path d="M340.76,195.55l1.55-.76a12.47,12.47,0,0,1,1.42-1.11v-3.06a17.88,17.88,0,0,0-3.08,2.4C340.69,193.86,340.73,194.71,340.76,195.55Z"/><path d="M338.36,195.57v1.15l2.4-1.17c0-.84-.07-1.69-.11-2.53A24.94,24.94,0,0,0,338.36,195.57Z"/><path d="M253.65,269.46c-4.42,1-8.86,1.93-13.38,2.59-2.26.43-4.54.65-6.85,1s-4.64.52-7,1c1.14.38,2.3.69,3.47,1a26.71,26.71,0,0,0,3.53.75,49.24,49.24,0,0,0,7.18.63,56.57,56.57,0,0,0,14.37-1.54,57.45,57.45,0,0,0,13.56-5,41,41,0,0,0,11.58-8.53c-4.51,1.65-8.87,3.13-13.25,4.48S258.08,268.48,253.65,269.46Z"/><path d="M256.91,288.67a24.59,24.59,0,0,0-5.94-.1,23.21,23.21,0,0,0-5.81,1.38,14.49,14.49,0,0,0-5.07,3.08,51.33,51.33,0,0,1,5.56-1.39c1.85-.35,3.69-.61,5.55-.81s3.73-.3,5.62-.37c.48,0,.95,0,1.43,0l1.43-.05c1,0,1.93,0,2.93-.14a23.12,23.12,0,0,0-2.79-1A26.2,26.2,0,0,0,256.91,288.67Z"/><path d="M236.25,243.86a11,11,0,0,0,.8,1.75,9.44,9.44,0,0,0,2.72,3,9.84,9.84,0,0,0,3.91,1.59,11.81,11.81,0,0,0,4-.13,11.2,11.2,0,0,0,3.75-1.47,11.94,11.94,0,0,0,2.94-2.67,13.24,13.24,0,0,0,1.83-3.3A12.49,12.49,0,0,0,257,239a1.46,1.46,0,0,0-.81-1.41,1.48,1.48,0,0,0-2,.65l-.1.2a20,20,0,0,1-1.39,2.44A14.26,14.26,0,0,1,251,243a10.35,10.35,0,0,1-2,1.45,8.19,8.19,0,0,1-2.27.75,8.85,8.85,0,0,1-2.39.14,6.5,6.5,0,0,1-2.11-.62,6.64,6.64,0,0,1-1.9-1.44,14.39,14.39,0,0,1-1.61-2.09l-.19-.29A1.51,1.51,0,0,0,235.8,242,10.29,10.29,0,0,0,236.25,243.86Z"/><path d="M314.38,197.09h0c-.11.68-.25,1.38-.41,2.08q.73.18,1.5.33Z"/><path d="M273,201.78l.16-.09c.75-.42,1.55-.84,2.38-1.23a17.79,17.79,0,0,1,2.31-5.34l3.34,2.19a12.09,12.09,0,0,0-.64,1.12c.9-.31,1.8-.58,2.71-.82a26.33,26.33,0,0,1,2.63-.6,26.74,26.74,0,0,1,2.65-.47c.9-.08,1.78-.24,2.67-.29l1.87-.1a9.37,9.37,0,0,0-1.67-1.55l2.32-3.27a14.55,14.55,0,0,1,4.22,4.88l1.32.13c.89.11,1.79.12,2.69.26s1.78.31,2.68.44c.45.07.91.11,1.36.2l1.33.32,2.71.57c1.32.32,2.63.71,4,1,.16-.7.3-1.4.41-2.08h0l1.09,2.41q-.77-.15-1.5-.33c-.11.51-.23,1-.36,1.52-.3,1.21-.64,2.41-1,3.59a23.83,23.83,0,0,1-3.31,6.73,24.72,24.72,0,0,0,5.1-5.85c.73-1.08,1.39-2.21,2-3.35s1.24-2.29,1.81-3.55h0l.65-1.35-1.74-1a55.18,55.18,0,0,0-5.36-2.89l-2.87-1.09-1.45-.52c-.49-.16-1-.26-1.5-.4-1-.25-2-.48-3-.7s-2.06-.28-3.09-.41l-1.55-.16c-.52-.05-1,0-1.57,0-1,0-2.09,0-3.13,0l-3.12.34c-1,.1-2.06.4-3.08.6a28.75,28.75,0,0,0-3,.84,25.76,25.76,0,0,0-2.92,1.11,28.35,28.35,0,0,0-10.18,7.09,1.37,1.37,0,0,0,1.7,2.11Z"/><path d="M293.85,196.11l-.81,0a14.73,14.73,0,0,1,3.19,9.5c0,6.82-3.9,12.36-8.7,12.36s-8.7-5.54-8.7-12.36a15.77,15.77,0,0,1,1.68-7.22c-.83.27-1.65.58-2.48.9s-1.7.72-2.53,1.13a20.29,20.29,0,0,0-.67,5.19c0,9,5.7,16.36,12.7,16.36s12.7-7.33,12.7-16.36a19.83,19.83,0,0,0-2.32-9.44c-.46,0-.91-.05-1.37,0C295.65,196.17,294.75,196.1,293.85,196.11Z"/><path d="M280.51,198.43a12.09,12.09,0,0,1,.64-1.12l-3.34-2.19a17.79,17.79,0,0,0-2.31,5.34c.83-.41,1.69-.79,2.53-1.13S279.68,198.7,280.51,198.43Z"/><path d="M293.69,191.33l-2.32,3.27a9.37,9.37,0,0,1,1.67,1.55l.81,0c.9,0,1.8.06,2.69.06.46,0,.91,0,1.37,0A14.55,14.55,0,0,0,293.69,191.33Z"/><path d="M176.13,200.05,175,202.46c.51-.1,1-.22,1.5-.34-.16-.7-.3-1.4-.41-2.07Z"/><path d="M172.3,201.22c.58,1.26,1.17,2.39,1.81,3.54s1.31,2.27,2,3.36a24.86,24.86,0,0,0,5.1,5.84,23.7,23.7,0,0,1-3.31-6.73c-.4-1.18-.73-2.38-1-3.58-.13-.51-.24-1-.36-1.53-.49.12-1,.24-1.5.34l1.09-2.41h0c.11.67.25,1.37.41,2.07,1.35-.33,2.65-.71,4-1l2.71-.57,1.33-.32c.45-.09.91-.13,1.36-.2.9-.13,1.79-.28,2.69-.43s1.79-.16,2.68-.27l1.32-.12a14.28,14.28,0,0,1,4.23-4.88l2.31,3.26a9.43,9.43,0,0,0-1.67,1.56l1.87.1c.89,0,1.77.2,2.67.29a24.08,24.08,0,0,1,2.65.46,24.57,24.57,0,0,1,2.64.61c.9.23,1.8.51,2.7.81-.2-.39-.41-.76-.64-1.12l3.35-2.19a18.31,18.31,0,0,1,2.31,5.34c.82.39,1.63.81,2.38,1.23l.15.09a1.39,1.39,0,0,0,1.59-.16,1.38,1.38,0,0,0,.12-1.94,28.28,28.28,0,0,0-10.19-7.1,30.23,30.23,0,0,0-2.92-1.11,28.7,28.7,0,0,0-3-.83c-1-.2-2-.5-3.08-.61l-3.12-.33c-1-.05-2.09,0-3.13,0-.52,0-1.05,0-1.57,0l-1.55.17c-1,.12-2.07.2-3.09.4s-2,.46-3,.71c-.5.13-1,.24-1.49.4l-1.46.51-2.87,1.09a55.18,55.18,0,0,0-5.36,2.89l-1.74,1.06.65,1.35Z"/><path d="M210,201.38a15.78,15.78,0,0,1,1.68,7.23c0,6.81-3.9,12.36-8.7,12.36s-8.7-5.55-8.7-12.36a14.7,14.7,0,0,1,3.19-9.5l-.81-.05c-.9,0-1.8.06-2.69.06a12.55,12.55,0,0,0-1.37,0,19.81,19.81,0,0,0-2.32,9.44c0,9,5.7,16.36,12.7,16.36s12.7-7.34,12.7-16.36a20.82,20.82,0,0,0-.66-5.2c-.84-.4-1.7-.78-2.54-1.13S210.83,201.66,210,201.38Z"/><path d="M209.36,200.26c.23.36.44.73.64,1.12.83.28,1.66.58,2.48.9s1.7.73,2.54,1.13a18.31,18.31,0,0,0-2.31-5.34Z"/><path d="M196.66,199.06l.81.05a9.43,9.43,0,0,1,1.67-1.56l-2.31-3.26a14.28,14.28,0,0,0-4.23,4.88,12.55,12.55,0,0,1,1.37,0C194.86,199.12,195.76,199.06,196.66,199.06Z"/><path d="M75.35,526.2l.13,3.23a118,118,0,0,0,21.24,1.83A162.84,162.84,0,0,0,117,529.92c-.06-1.67-.13-3.35-.2-5-51,6.53-71.42-13.17-75.44-17.78,4.46-12.24,38.6-105.47,50.25-121.58,1.47-2,4.27-4.19,8-6.42-.17-1.14-.32-2.29-.44-3.45l4.91-1q.26.87.48,1.74c22.1-11.15,64.39-23.27,85.07-29.2l.87-.25c0-2,.07-3.26.08-3.5l.11-1.71,1.67-.52-4.11,1.18c-47,13.46-91.67,27.64-100.73,40.17C74.7,400.33,37.71,502.4,36.14,506.73l-.44,1.21.73,1.05c.55.81,9.62,13.54,34,19.38l-.08-2Z"/><path d="M201.57,343.61l-6,1.89v.05c2.72-.79,4.66-1.36,6.06-1.8C201.58,343.71,201.57,343.65,201.57,343.61Z"/><path d="M206.45,340.3s0,.21,0,.54c.93-2.41,1.77-9.46.32-32.55-1.8-1.13-3.55-2.28-5.24-3.47,1,14.1,1.39,29.52.59,33.38l4.4-1.39Z"/><path d="M206.44,303.35l-5,.35c0,.37.06.75.08,1.12,1.69,1.19,3.44,2.34,5.24,3.47C206.67,306.71,206.56,305.08,206.44,303.35Z"/><path d="M125.07,573.58c-1-18.73-2-37.47-3.09-56.19l-1.63-28.1q-.41-7-1.3-14a117.11,117.11,0,0,0-2.57-14,118.79,118.79,0,0,0-1.19,14.15q-.21,7.05.07,14.08l1.12,28.12c.09,2.41.19,4.83.28,7.24,1.52-.19,3-.4,4.62-.64l.76,4.94c-1.76.27-3.48.5-5.18.72.61,14.65,1.29,29.31,1.92,44,.89,18.74,1.78,37.47,2.79,56.21.36,7,.77,14.06,1.18,21.09h5.81c-.29-7.13-.56-14.26-.89-21.39C126.94,611.05,126,592.31,125.07,573.58Z"/><path d="M100.67,385.19c.62,3.15,1.38,6.27,2.18,9.38.39,1.56.85,3.11,1.28,4.66s.92,3.09,1.44,4.62a85.25,85.25,0,0,0,3.5,9.13,85.71,85.71,0,0,0-.22-9.77c-.11-1.62-.27-3.22-.42-4.83s-.35-3.2-.58-4.79c-.45-3.18-.93-6.36-1.55-9.51-.5-2.56-1-5.12-1.74-7.64-1.79.9-3.45,1.8-5,2.68C99.91,381.16,100.27,383.18,100.67,385.19Z"/><path d="M99.17,375.67c.12,1.16.27,2.31.44,3.45,1.5-.88,3.16-1.78,5-2.68q-.23-.87-.48-1.74Z"/><path d="M407.56,376.65C419.24,392.79,453.7,494.4,458,507.09c-4,4.57-24.4,24.35-75.47,17.81-.07,1.67-.13,3.35-.2,5a162.84,162.84,0,0,0,20.24,1.34,118,118,0,0,0,21.24-1.83l.13-3.23,5,.21-.08,2c24.38-5.84,33.45-18.56,34-19.37l.71-1-.4-1.18c-1.57-4.7-38.7-115.32-51.54-133.07-2.33-3.22-7-6.3-13.47-9.27-.17,1.73-.42,3.44-.7,5.14C402.27,371.91,405.84,374.28,407.56,376.65Z"/><path d="M308.43,342.27c.05.23.29,1.54.52,3.63l1.63.33c19.7,4,59.21,12,81.62,21.06.31-1.32.66-2.63,1.05-3.94l4.36.86c-18.69-8.45-51.75-15.94-86-22.88l-5.08-1,1.62.38Z"/><path d="M292.87,341c0-.29,0-.46,0-.48L292.5,337l4.63,1.09c-.79-4.12-.31-20.13.69-34.4l-1.57-.11c-1.21,1-2.43,2-3.63,2.88C291,331.43,291.89,338.6,292.87,341Z"/><path d="M303.76,344.8l-5.82-1.37v.17c1.38.31,3.25.71,5.83,1.25Z"/><path d="M292.62,306.47c1.2-.92,2.42-1.88,3.63-2.88l-3.42-.24Q292.71,305,292.62,306.47Z"/><path d="M380.39,573.88c.64-14.65,1.31-29.31,1.92-44-1.7-.22-3.42-.45-5.18-.72l.76-4.94c1.57.24,3.1.45,4.62.64.09-2.41.19-4.83.29-7.24l1.11-28.12q.29-7,.07-14.08a116.74,116.74,0,0,0-1.19-14.15,117.11,117.11,0,0,0-2.57,14q-.9,7-1.3,14l-1.63,28.1c-1.12,18.72-2.07,37.46-3.09,56.19s-1.87,37.47-2.7,56.21c-.33,7.13-.6,14.26-.89,21.39h5.81c.41-7,.82-14.06,1.18-21.09C378.61,611.35,379.5,592.62,380.39,573.88Z"/><path d="M398.15,364.32l-.54-.11.53.24S398.15,364.36,398.15,364.32Z"/><path d="M391,372.73c-.62,3.15-1.11,6.33-1.55,9.51-.23,1.59-.39,3.2-.58,4.79s-.32,3.21-.42,4.83a85.71,85.71,0,0,0-.22,9.77,85.25,85.25,0,0,0,3.5-9.13c.51-1.53,1-3.08,1.44-4.62s.89-3.1,1.28-4.66c.8-3.11,1.55-6.23,2.17-9.38.29-1.41.55-2.83.79-4.25q-2.43-1.15-5.24-2.3C391.76,369.1,391.38,370.91,391,372.73Z"/><path d="M392.2,367.29q2.81,1.14,5.24,2.3c.28-1.7.53-3.41.7-5.14l-.53-.24-4.36-.86C392.86,364.66,392.51,366,392.2,367.29Z"/><path d="M306.5,340.3l-9.37-2.2,0,.16C298.69,338.68,302.26,339.44,306.5,340.3Z"/><path d="M198.92,369.34l-1.49,1.05-2.87-4.1,3-2.1c-.63-2.77-1.07-5.41-1.37-7.82l-3.45,1.13-1.55-4.75,4.51-1.48c-.16-2.44-.19-4.42-.18-5.72l-5,1.44c0,6.66,1,21.58,8.26,35.26l3.89-3.41A63.73,63.73,0,0,1,198.92,369.34Z"/><path d="M304.06,359.28l4.79,2.34-2.18,4.49-3.28-1.59a51.78,51.78,0,0,1-4.6,14.51l4,3.15c7.41-14.05,6.88-29.42,6.14-36.28l-5.18-1A68.88,68.88,0,0,1,304.06,359.28Z"/><path d="M296.28,383.42c-.59.89-1.21,1.78-1.88,2.65a40.83,40.83,0,0,1-6.14,6.33l1.84,3.07L285.8,398l-1.58-2.65a50.19,50.19,0,0,1-11.51,5.49l.87,4.28-4.9,1-.79-3.87a75.94,75.94,0,0,1-10.24,1.8V407h-5V404.5a80,80,0,0,1-10.42-.09l-.57,2.85-4.9-1,.49-2.44a53.05,53.05,0,0,1-9.56-2.39l-1,2.41L222.07,402l1-2.44a41.94,41.94,0,0,1-10.23-6.91l-1.46,2-4-3,1.95-2.62a46.9,46.9,0,0,1-4.18-5.69L202,386.09l-3-3.38a52.5,52.5,0,0,0,8.91,12.12c9.79,9.84,23.22,14.81,40,14.81,1.79,0,3.63-.06,5.5-.17,20.37-1.25,35.51-8.1,45-20.37a47.94,47.94,0,0,0,4.29-6.67l-2.9,3.71Z"/><path d="M202.12,338.2l-9.76,3.06c4.44-1.28,8.23-2.39,9.73-2.93Z"/><path d="M205.85,348l1.55,4.75L203.3,354c.42,1.61.94,3.3,1.56,5l2.32-1.63,2.87,4.1-3.22,2.26a46.17,46.17,0,0,0,4.45,7.48l2.84-2.49,3.3,3.76-2.94,2.58c.27.28.51.57.79.85.71.71,1.45,1.39,2.2,2l2.16-2.9,4,3-2.2,3a42.32,42.32,0,0,0,7.53,4l.87-2.14,4.63,1.89-.77,1.89a55.18,55.18,0,0,0,6.68,1.47l.41-2.06,4.9,1-.32,1.63c1.94.14,3.95.2,6,.18l1.27,0v-2.46h5v2.15a59.54,59.54,0,0,0,7.24-1.14L264.6,386l4.9-1,.22,1.09a43,43,0,0,0,7.11-3.09l-1.56-2.62,4.3-2.57,1.49,2.5a37.78,37.78,0,0,0,5.28-4.68l-2.76-2.16,3.08-3.93,2.83,2.21a42.89,42.89,0,0,0,5.68-11.23l-3.62-1.76,2.19-4.5,2.81,1.37a56.48,56.48,0,0,0,1.39-12c-2.94-.68-3.66-1-4.19-1.42a2.61,2.61,0,0,1-.88-1.22c.17,3,.58,19.31-9.77,30.83-7.09,7.88-17.78,12-31.78,12.13s-24.78-3.69-32.47-11.44c-11.44-11.53-12.33-28.4-12.4-31.64a2.75,2.75,0,0,1-.93,1.35c-.47.38-1.18.71-3.94,1.56.11,1.45.32,3.29.68,5.38Z"/><path d="M190.58,343.49c0,.24-.09,1.5-.08,3.5l5-1.44v-.05l6-1.89s0,.1,0,.14c2.76-.85,3.47-1.18,3.94-1.56a2.75,2.75,0,0,0,.93-1.35c0-.33,0-.53,0-.54l.07-3.49-4.4,1.39,0,.13c-1.5.54-5.29,1.65-9.73,2.93l-1.67.52Z"/><path d="M292.83,340.48s0,.19,0,.48a2.61,2.61,0,0,0,.88,1.22c.53.43,1.25.74,4.19,1.42v-.17l5.82,1.37v.05l5.18,1c-.23-2.09-.47-3.4-.52-3.63l-.31-1.59-1.62-.38c-4.24-.86-7.81-1.62-9.34-2l0-.16L292.5,337Z"/><path d="M252.65,388.88V404.5l.42,0c1.57-.1,3.09-.24,4.58-.41v-15.5C256,388.73,254.36,388.83,252.65,388.88Z"/><path d="M257.65,386.42h-5v2.46c1.71-.05,3.38-.15,5-.31Z"/><path d="M252.65,404.5V407h5v-2.9c-1.49.17-3,.31-4.58.41Z"/><path d="M240.38,388.19l-3.13,15.65c1.61.25,3.28.44,5,.57l3.14-15.67C243.66,388.62,242,388.44,240.38,388.19Z"/><path d="M245.69,387.11l-4.9-1-.41,2.06c1.62.25,3.28.43,5,.55Z"/><path d="M236.76,406.28l4.9,1,.57-2.85c-1.7-.13-3.37-.32-5-.57Z"/><path d="M229,385.08l-5.9,14.45a47.62,47.62,0,0,0,4.62,1.92l6-14.73A49.66,49.66,0,0,1,229,385.08Z"/><path d="M222.07,402l4.63,1.89,1-2.41a47.62,47.62,0,0,1-4.62-1.92Z"/><path d="M234.47,384.83l-4.63-1.89-.87,2.14a49.66,49.66,0,0,0,4.73,1.64Z"/><path d="M217.47,378l-8.15,11c.68.79,1.39,1.58,2.15,2.34.44.44.91.87,1.37,1.29l8.6-11.56A40.48,40.48,0,0,1,217.47,378Z"/><path d="M209.32,389l-1.95,2.62,4,3,1.46-2c-.46-.42-.93-.85-1.37-1.29C210.71,390.57,210,389.78,209.32,389Z"/><path d="M223.64,378.1l-4-3-2.16,2.9a40.48,40.48,0,0,0,4,3Z"/><path d="M198.66,382.33l.33.38c-.08-.15-.15-.3-.23-.46Z"/><path d="M211.28,371.27l-8.63,7.57q1.13,2.27,2.49,4.46l9.34-8.18A43.8,43.8,0,0,1,211.28,371.27Z"/><path d="M205.14,383.3q-1.37-2.19-2.49-4.46l-3.89,3.41c.08.16.15.31.23.46l3,3.38Z"/><path d="M217.42,372.54l-3.3-3.76-2.84,2.49a43.8,43.8,0,0,0,3.2,3.85Z"/><path d="M204.86,359.06l-7.3,5.13q.57,2.52,1.36,5.15l7.91-5.55A50.58,50.58,0,0,1,204.86,359.06Z"/><path d="M210.05,361.53l-2.87-4.1-2.32,1.63a50.58,50.58,0,0,0,2,4.73Z"/><path d="M194.56,366.29l2.87,4.1,1.49-1.05q-.79-2.62-1.36-5.15Z"/><path d="M202.26,349.13l-6.56,2.14c.1,1.54.25,3.25.49,5.1L203.3,354C202.85,352.3,202.52,350.65,202.26,349.13Z"/><path d="M207.4,352.7,205.85,348l-3.59,1.18c.26,1.52.59,3.17,1,4.91Z"/><path d="M191.19,352.75l1.55,4.75,3.45-1.13c-.24-1.85-.39-3.56-.49-5.1Z"/><path d="M264.89,387.43l3,14.84q2.49-.61,4.82-1.4l-3-14.78A47.44,47.44,0,0,1,264.89,387.43Z"/><path d="M268.68,406.14l4.9-1-.87-4.28q-2.32.78-4.82,1.4Z"/><path d="M269.5,385l-4.9,1,.29,1.44a47.44,47.44,0,0,0,4.83-1.34Z"/><path d="M276.83,383l7.39,12.38a41.68,41.68,0,0,0,4-3l-7.2-12.09A39.9,39.9,0,0,1,276.83,383Z"/><path d="M279.57,377.81l-4.3,2.57,1.56,2.62a39.9,39.9,0,0,0,4.23-2.69Z"/><path d="M285.8,398l4.3-2.56-1.84-3.07a41.68,41.68,0,0,1-4,3Z"/><path d="M286.85,375.1c-.17.18-.35.35-.51.53l9.94,7.79a43,43,0,0,0,2.51-4.39l-9.3-7.28A38.74,38.74,0,0,1,286.85,375.1Z"/><path d="M302.85,382.21l0,0-.14.25Z"/><path d="M296.28,383.42l3.49,2.72,2.9-3.71.14-.25-4-3.15A43,43,0,0,1,296.28,383.42Z"/><path d="M289.49,371.75l-2.83-2.21-3.08,3.93,2.76,2.16c.16-.18.34-.35.51-.53A38.74,38.74,0,0,0,289.49,371.75Z"/><path d="M295.17,360.52l8.22,4c.31-1.8.52-3.56.67-5.24l-7.51-3.65C296.19,357.21,295.73,358.85,295.17,360.52Z"/><path d="M293.74,354.26l-2.19,4.5,3.62,1.76c.56-1.67,1-3.31,1.38-4.89Z"/><path d="M306.67,366.11l2.18-4.49-4.79-2.34c-.15,1.68-.36,3.44-.67,5.24Z"/><path d="M203,221c4.8,0,8.7-5.55,8.7-12.36a15.78,15.78,0,0,0-1.68-7.23c-.9-.3-1.8-.58-2.7-.81a24.57,24.57,0,0,0-2.64-.61,24.08,24.08,0,0,0-2.65-.46c-.9-.09-1.78-.25-2.67-.29l-1.87-.1a14.7,14.7,0,0,0-3.19,9.5C194.28,215.42,198.19,221,203,221Z"/><path d="M287.53,218c4.8,0,8.7-5.54,8.7-12.36a14.73,14.73,0,0,0-3.19-9.5l-1.87.1c-.89.05-1.77.21-2.67.29a26.74,26.74,0,0,0-2.65.47,26.33,26.33,0,0,0-2.63.6c-.91.24-1.81.51-2.71.82a15.77,15.77,0,0,0-1.68,7.22C278.83,212.47,282.73,218,287.53,218Z"/></g></svg>